<?xml version="1.0" encoding="UTF-8" standalone="no"?>
<!DOCTYPE svg PUBLIC "-//W3C//DTD SVG 1.1//EN"
 "http://www.w3.org/Graphics/SVG/1.1/DTD/svg11.dtd">
<!-- Generated by graphviz version 2.43.0 (0)
 -->
<!-- Title: %3 Pages: 1 -->
<svg width="4161pt" height="188pt"
 viewBox="0.00 0.00 4161.32 188.00" xmlns="http://www.w3.org/2000/svg" xmlns:xlink="http://www.w3.org/1999/xlink">
<g id="graph0" class="graph" transform="scale(1 1) rotate(0) translate(4 184)">
<title>%3</title>
<polygon fill="#f6f3eb" stroke="transparent" points="-4,4 -4,-184 4157.32,-184 4157.32,4 -4,4"/>
<!-- node_130384032655664 -->
<g id="node1" class="node">
<title>node_130384032655664</title>
<ellipse fill="none" stroke="black" cx="1782.29" cy="-162" rx="61.19" ry="18"/>
<text text-anchor="middle" x="1782.29" y="-158.3" font-family="Times,serif" font-size="14.00">PROGRAM</text>
</g>
<!-- node_130384029803216 -->
<g id="node2" class="node">
<title>node_130384029803216</title>
<ellipse fill="none" stroke="black" cx="105.29" cy="-90" rx="105.08" ry="18"/>
<text text-anchor="middle" x="105.29" y="-86.3" font-family="Times,serif" font-size="14.00">DECLARATION&#45;LIST</text>
</g>
<!-- node_130384032655664&#45;&gt;node_130384029803216 -->
<g id="edge1" class="edge">
<title>node_130384032655664&#45;&gt;node_130384029803216</title>
<path fill="none" stroke="black" d="M1721.06,-161.43C1511.23,-162.37 801.98,-161.15 219.29,-108 209.1,-107.07 198.43,-105.83 187.87,-104.45"/>
<polygon fill="black" stroke="black" points="188.19,-100.96 177.81,-103.08 187.25,-107.9 188.19,-100.96"/>
</g>
<!-- node_130384029804176 -->
<g id="node3" class="node">
<title>node_130384029804176</title>
<ellipse fill="none" stroke="black" cx="324.29" cy="-90" rx="95.58" ry="18"/>
<text text-anchor="middle" x="324.29" y="-86.3" font-family="Times,serif" font-size="14.00">| &#160;&#160;&#160;DECLARATION</text>
</g>
<!-- node_130384032655664&#45;&gt;node_130384029804176 -->
<g id="edge2" class="edge">
<title>node_130384032655664&#45;&gt;node_130384029804176</title>
<path fill="none" stroke="black" d="M1721.09,-161.24C1529.76,-161.43 926.05,-157.76 429.29,-108 420.02,-107.07 410.32,-105.85 400.72,-104.48"/>
<polygon fill="black" stroke="black" points="401.19,-101.01 390.79,-103.01 400.17,-107.94 401.19,-101.01"/>
</g>
<!-- node_130384029804512 -->
<g id="node7" class="node">
<title>node_130384029804512</title>
<ellipse fill="none" stroke="black" cx="558.29" cy="-90" rx="120.48" ry="18"/>
<text text-anchor="middle" x="558.29" y="-86.3" font-family="Times,serif" font-size="14.00">| &#160;&#160;&#160;DECLARATION&#45;LIST</text>
</g>
<!-- node_130384032655664&#45;&gt;node_130384029804512 -->
<g id="edge6" class="edge">
<title>node_130384032655664&#45;&gt;node_130384029804512</title>
<path fill="none" stroke="black" d="M1721.39,-159.79C1555.37,-156.13 1081.05,-143.14 688.29,-108 676.6,-106.95 664.35,-105.64 652.23,-104.21"/>
<polygon fill="black" stroke="black" points="652.45,-100.71 642.1,-102.98 651.6,-107.66 652.45,-100.71"/>
</g>
<!-- node_130384029804560 -->
<g id="node8" class="node">
<title>node_130384029804560</title>
<ellipse fill="none" stroke="black" cx="867.29" cy="-90" rx="170.07" ry="18"/>
<text text-anchor="middle" x="867.29" y="-86.3" font-family="Times,serif" font-size="14.00">| &#160;&#160;&#160;&#160;&#160;&#160;&#160;DECLARATION (&quot;int&quot; &quot;y&quot; &quot;;&quot;)</text>
</g>
<!-- node_130384032655664&#45;&gt;node_130384029804560 -->
<g id="edge7" class="edge">
<title>node_130384032655664&#45;&gt;node_130384029804560</title>
<path fill="none" stroke="black" d="M1723.19,-157.18C1598.31,-149.03 1298.45,-128.91 1047.29,-108 1031.36,-106.67 1014.64,-105.2 998.08,-103.7"/>
<polygon fill="black" stroke="black" points="998.08,-100.18 987.8,-102.75 997.44,-107.15 998.08,-100.18"/>
</g>
<!-- node_130384029804608 -->
<g id="node9" class="node">
<title>node_130384029804608</title>
<ellipse fill="none" stroke="black" cx="1202.29" cy="-90" rx="146.47" ry="18"/>
<text text-anchor="middle" x="1202.29" y="-86.3" font-family="Times,serif" font-size="14.00">| &#160;&#160;&#160;&#160;&#160;&#160;&#160;DECLARATION&#45;LIST (ε)</text>
</g>
<!-- node_130384032655664&#45;&gt;node_130384029804608 -->
<g id="edge8" class="edge">
<title>node_130384032655664&#45;&gt;node_130384029804608</title>
<path fill="none" stroke="black" d="M1726.94,-154.32C1632.06,-142.87 1436.66,-119.29 1312.94,-104.35"/>
<polygon fill="black" stroke="black" points="1313.03,-100.84 1302.68,-103.12 1312.19,-107.79 1313.03,-100.84"/>
</g>
<!-- node_130384029804656 -->
<g id="node10" class="node">
<title>node_130384029804656</title>
<ellipse fill="none" stroke="black" cx="1460.29" cy="-90" rx="94.48" ry="18"/>
<text text-anchor="middle" x="1460.29" y="-86.3" font-family="Times,serif" font-size="14.00">STATEMENT&#45;LIST</text>
</g>
<!-- node_130384032655664&#45;&gt;node_130384029804656 -->
<g id="edge9" class="edge">
<title>node_130384032655664&#45;&gt;node_130384029804656</title>
<path fill="none" stroke="black" d="M1734.78,-150.67C1680.76,-138.93 1592.05,-119.64 1530.14,-106.19"/>
<polygon fill="black" stroke="black" points="1530.58,-102.7 1520.07,-103.99 1529.09,-109.54 1530.58,-102.7"/>
</g>
<!-- node_130384029804704 -->
<g id="node11" class="node">
<title>node_130384029804704</title>
<ellipse fill="none" stroke="black" cx="1782.29" cy="-90" rx="209.86" ry="18"/>
<text text-anchor="middle" x="1782.29" y="-86.3" font-family="Times,serif" font-size="14.00">| &#160;&#160;&#160;STATEMENT (&quot;x&quot; &quot;=&quot; EXPRESSION &quot;;&quot;)</text>
</g>
<!-- node_130384032655664&#45;&gt;node_130384029804704 -->
<g id="edge10" class="edge">
<title>node_130384032655664&#45;&gt;node_130384029804704</title>
<path fill="none" stroke="black" d="M1782.29,-143.7C1782.29,-135.98 1782.29,-126.71 1782.29,-118.11"/>
<polygon fill="black" stroke="black" points="1785.79,-118.1 1782.29,-108.1 1778.79,-118.1 1785.79,-118.1"/>
</g>
<!-- node_130384029804752 -->
<g id="node12" class="node">
<title>node_130384029804752</title>
<ellipse fill="none" stroke="black" cx="2141.29" cy="-90" rx="131.08" ry="18"/>
<text text-anchor="middle" x="2141.29" y="-86.3" font-family="Times,serif" font-size="14.00">| &#160;&#160;| &#160;&#160;&#160;EXPRESSION (&quot;10&quot;)</text>
</g>
<!-- node_130384032655664&#45;&gt;node_130384029804752 -->
<g id="edge11" class="edge">
<title>node_130384032655664&#45;&gt;node_130384029804752</title>
<path fill="none" stroke="black" d="M1831.83,-151.34C1890.41,-139.92 1988.78,-120.74 2058.88,-107.07"/>
<polygon fill="black" stroke="black" points="2059.87,-110.44 2069.01,-105.09 2058.53,-103.57 2059.87,-110.44"/>
</g>
<!-- node_130384029804800 -->
<g id="node13" class="node">
<title>node_130384029804800</title>
<ellipse fill="none" stroke="black" cx="2399.29" cy="-90" rx="108.58" ry="18"/>
<text text-anchor="middle" x="2399.29" y="-86.3" font-family="Times,serif" font-size="14.00">| &#160;&#160;&#160;STATEMENT&#45;LIST</text>
</g>
<!-- node_130384032655664&#45;&gt;node_130384029804800 -->
<g id="edge12" class="edge">
<title>node_130384032655664&#45;&gt;node_130384029804800</title>
<path fill="none" stroke="black" d="M1839.62,-155.61C1932.5,-146.72 2121.58,-127.98 2281.29,-108 2291.07,-106.78 2301.3,-105.42 2311.46,-104.02"/>
<polygon fill="black" stroke="black" points="2312.17,-107.46 2321.59,-102.61 2311.2,-100.52 2312.17,-107.46"/>
</g>
<!-- node_130384029804848 -->
<g id="node14" class="node">
<title>node_130384029804848</title>
<ellipse fill="none" stroke="black" cx="2747.29" cy="-90" rx="221.76" ry="18"/>
<text text-anchor="middle" x="2747.29" y="-86.3" font-family="Times,serif" font-size="14.00">| &#160;&#160;&#160;&#160;&#160;&#160;&#160;STATEMENT (&quot;y&quot; &quot;=&quot; EXPRESSION &quot;;&quot;)</text>
</g>
<!-- node_130384032655664&#45;&gt;node_130384029804848 -->
<g id="edge13" class="edge">
<title>node_130384032655664&#45;&gt;node_130384029804848</title>
<path fill="none" stroke="black" d="M1840.89,-156.81C1965.42,-147.9 2265.61,-126.38 2517.29,-108 2537.54,-106.52 2558.8,-104.96 2579.87,-103.41"/>
<polygon fill="black" stroke="black" points="2580.14,-106.9 2589.86,-102.67 2579.63,-99.92 2580.14,-106.9"/>
</g>
<!-- node_130384029804896 -->
<g id="node15" class="node">
<title>node_130384029804896</title>
<ellipse fill="none" stroke="black" cx="3160.29" cy="-90" rx="173.57" ry="18"/>
<text text-anchor="middle" x="3160.29" y="-86.3" font-family="Times,serif" font-size="14.00">| &#160;&#160;&#160;&#160;&#160;&#160;| &#160;&#160;&#160;EXPRESSION (&quot;x&quot; &quot;+&quot; &quot;5&quot;)</text>
</g>
<!-- node_130384032655664&#45;&gt;node_130384029804896 -->
<g id="edge14" class="edge">
<title>node_130384032655664&#45;&gt;node_130384029804896</title>
<path fill="none" stroke="black" d="M1843.02,-159.36C2018.88,-154.37 2543.63,-137.91 2978.29,-108 2995.1,-106.84 3012.76,-105.44 3030.2,-103.93"/>
<polygon fill="black" stroke="black" points="3030.78,-107.39 3040.43,-103.03 3030.16,-100.42 3030.78,-107.39"/>
</g>
<!-- node_130384029804944 -->
<g id="node16" class="node">
<title>node_130384029804944</title>
<ellipse fill="none" stroke="black" cx="3498.29" cy="-90" rx="146.77" ry="18"/>
<text text-anchor="middle" x="3498.29" y="-86.3" font-family="Times,serif" font-size="14.00">| &#160;&#160;&#160;&#160;&#160;&#160;| &#160;&#160;&#160;STATEMENT&#45;LIST (ε)</text>
</g>
<!-- node_130384032655664&#45;&gt;node_130384029804944 -->
<g id="edge15" class="edge">
<title>node_130384032655664&#45;&gt;node_130384029804944</title>
<path fill="none" stroke="black" d="M1843.37,-160.58C2052.71,-158.78 2760.43,-149.8 3343.29,-108 3357.55,-106.98 3372.52,-105.65 3387.31,-104.2"/>
<polygon fill="black" stroke="black" points="3387.91,-107.65 3397.5,-103.17 3387.2,-100.69 3387.91,-107.65"/>
</g>
<!-- node_130384029804992 -->
<g id="node17" class="node">
<title>node_130384029804992</title>
<ellipse fill="none" stroke="black" cx="3908.29" cy="-90" rx="245.06" ry="18"/>
<text text-anchor="middle" x="3908.29" y="-86.3" font-family="Times,serif" font-size="14.00">RETURN&#45;STATEMENT (&quot;return&quot; EXPRESSION &quot;;&quot;)</text>
</g>
<!-- node_130384032655664&#45;&gt;node_130384029804992 -->
<g id="edge16" class="edge">
<title>node_130384032655664&#45;&gt;node_130384029804992</title>
<path fill="none" stroke="black" d="M1843.33,-160.13C2077.73,-156.59 2942.65,-141.88 3654.29,-108 3678.94,-106.83 3704.92,-105.36 3730.48,-103.77"/>
<polygon fill="black" stroke="black" points="3730.87,-107.26 3740.63,-103.14 3730.43,-100.27 3730.87,-107.26"/>
</g>
<!-- node_130384029804224 -->
<g id="node4" class="node">
<title>node_130384029804224</title>
<ellipse fill="none" stroke="black" cx="247.29" cy="-18" rx="32.49" ry="18"/>
<text text-anchor="middle" x="247.29" y="-14.3" font-family="Times,serif" font-size="14.00">&quot;int&quot;</text>
</g>
<!-- node_130384029804176&#45;&gt;node_130384029804224 -->
<g id="edge3" class="edge">
<title>node_130384029804176&#45;&gt;node_130384029804224</title>
<path fill="none" stroke="black" d="M305.65,-72.05C295.26,-62.61 282.22,-50.76 271.1,-40.65"/>
<polygon fill="black" stroke="black" points="273.17,-37.79 263.41,-33.66 268.46,-42.97 273.17,-37.79"/>
</g>
<!-- node_130384029804320 -->
<g id="node5" class="node">
<title>node_130384029804320</title>
<ellipse fill="none" stroke="black" cx="324.29" cy="-18" rx="27" ry="18"/>
<text text-anchor="middle" x="324.29" y="-14.3" font-family="Times,serif" font-size="14.00">&quot;x&quot;</text>
</g>
<!-- node_130384029804176&#45;&gt;node_130384029804320 -->
<g id="edge4" class="edge">
<title>node_130384029804176&#45;&gt;node_130384029804320</title>
<path fill="none" stroke="black" d="M324.29,-71.7C324.29,-63.98 324.29,-54.71 324.29,-46.11"/>
<polygon fill="black" stroke="black" points="327.79,-46.1 324.29,-36.1 320.79,-46.1 327.79,-46.1"/>
</g>
<!-- node_130384029804416 -->
<g id="node6" class="node">
<title>node_130384029804416</title>
<ellipse fill="none" stroke="black" cx="396.29" cy="-18" rx="27" ry="18"/>
<text text-anchor="middle" x="396.29" y="-14.3" font-family="Times,serif" font-size="14.00">&quot;;&quot;</text>
</g>
<!-- node_130384029804176&#45;&gt;node_130384029804416 -->
<g id="edge5" class="edge">
<title>node_130384029804176&#45;&gt;node_130384029804416</title>
<path fill="none" stroke="black" d="M341.72,-72.05C351.5,-62.55 363.8,-50.59 374.24,-40.44"/>
<polygon fill="black" stroke="black" points="376.72,-42.9 381.45,-33.42 371.84,-37.89 376.72,-42.9"/>
</g>
<!-- node_130384029805040 -->
<g id="node18" class="node">
<title>node_130384029805040</title>
<ellipse fill="none" stroke="black" cx="3908.29" cy="-18" rx="98.58" ry="18"/>
<text text-anchor="middle" x="3908.29" y="-14.3" font-family="Times,serif" font-size="14.00">EXPRESSION (&quot;y&quot;)</text>
</g>
<!-- node_130384029804992&#45;&gt;node_130384029805040 -->
<g id="edge17" class="edge">
<title>node_130384029804992&#45;&gt;node_130384029805040</title>
<path fill="none" stroke="black" d="M3908.29,-71.7C3908.29,-63.98 3908.29,-54.71 3908.29,-46.11"/>
<polygon fill="black" stroke="black" points="3911.79,-46.1 3908.29,-36.1 3904.79,-46.1 3911.79,-46.1"/>
</g>
</g>
</svg>
