<?xml version="1.0" encoding="UTF-8" standalone="no"?>
<!DOCTYPE svg PUBLIC "-//W3C//DTD SVG 1.1//EN"
 "http://www.w3.org/Graphics/SVG/1.1/DTD/svg11.dtd">
<!-- Generated by graphviz version 2.43.0 (0)
 -->
<!-- Title: %3 Pages: 1 -->
<svg width="1476pt" height="332pt"
 viewBox="0.00 0.00 1476.18 332.00" xmlns="http://www.w3.org/2000/svg" xmlns:xlink="http://www.w3.org/1999/xlink">
<g id="graph0" class="graph" transform="scale(1 1) rotate(0) translate(4 328)">
<title>%3</title>
<polygon fill="white" stroke="transparent" points="-4,4 -4,-328 1472.18,-328 1472.18,4 -4,4"/>
<!-- node_125070845009008 -->
<g id="node1" class="node">
<title>node_125070845009008</title>
<ellipse fill="none" stroke="black" cx="769.64" cy="-306" rx="61.19" ry="18"/>
<text text-anchor="middle" x="769.64" y="-302.3" font-family="Times,serif" font-size="14.00">PROGRAM</text>
</g>
<!-- node_125070844584896 -->
<g id="node2" class="node">
<title>node_125070844584896</title>
<ellipse fill="none" stroke="black" cx="410.64" cy="-234" rx="105.08" ry="18"/>
<text text-anchor="middle" x="410.64" y="-230.3" font-family="Times,serif" font-size="14.00">DECLARATION&#45;LIST</text>
</g>
<!-- node_125070845009008&#45;&gt;node_125070844584896 -->
<g id="edge1" class="edge">
<title>node_125070845009008&#45;&gt;node_125070844584896</title>
<path fill="none" stroke="black" d="M720.1,-295.34C659.96,-283.62 557.89,-263.71 487.51,-249.99"/>
<polygon fill="black" stroke="black" points="487.85,-246.49 477.37,-248.01 486.51,-253.36 487.85,-246.49"/>
</g>
<!-- node_125070841731200 -->
<g id="node7" class="node">
<title>node_125070841731200</title>
<ellipse fill="none" stroke="black" cx="769.64" cy="-234" rx="94.48" ry="18"/>
<text text-anchor="middle" x="769.64" y="-230.3" font-family="Times,serif" font-size="14.00">STATEMENT&#45;LIST</text>
</g>
<!-- node_125070845009008&#45;&gt;node_125070841731200 -->
<g id="edge6" class="edge">
<title>node_125070845009008&#45;&gt;node_125070841731200</title>
<path fill="none" stroke="black" d="M769.64,-287.7C769.64,-279.98 769.64,-270.71 769.64,-262.11"/>
<polygon fill="black" stroke="black" points="773.14,-262.1 769.64,-252.1 766.14,-262.1 773.14,-262.1"/>
</g>
<!-- node_125070841732448 -->
<g id="node14" class="node">
<title>node_125070841732448</title>
<ellipse fill="none" stroke="black" cx="1207.64" cy="-234" rx="245.06" ry="18"/>
<text text-anchor="middle" x="1207.64" y="-230.3" font-family="Times,serif" font-size="14.00">RETURN&#45;STATEMENT (&quot;return&quot; EXPRESSION &quot;;&quot;)</text>
</g>
<!-- node_125070845009008&#45;&gt;node_125070841732448 -->
<g id="edge13" class="edge">
<title>node_125070845009008&#45;&gt;node_125070841732448</title>
<path fill="none" stroke="black" d="M822.04,-296.63C890.47,-285.69 1011.95,-266.27 1100.31,-252.15"/>
<polygon fill="black" stroke="black" points="1101.05,-255.58 1110.37,-250.54 1099.95,-248.67 1101.05,-255.58"/>
</g>
<!-- node_125070844582160 -->
<g id="node3" class="node">
<title>node_125070844582160</title>
<ellipse fill="none" stroke="black" cx="143.64" cy="-162" rx="143.77" ry="18"/>
<text text-anchor="middle" x="143.64" y="-158.3" font-family="Times,serif" font-size="14.00">DECLARATION (&quot;int&quot; &quot;x&quot; &quot;;&quot;)</text>
</g>
<!-- node_125070844584896&#45;&gt;node_125070844582160 -->
<g id="edge2" class="edge">
<title>node_125070844584896&#45;&gt;node_125070844582160</title>
<path fill="none" stroke="black" d="M355.64,-218.58C314.2,-207.72 257.1,-192.75 212.6,-181.08"/>
<polygon fill="black" stroke="black" points="213.3,-177.64 202.74,-178.49 211.52,-184.42 213.3,-177.64"/>
</g>
<!-- node_125070844582400 -->
<g id="node4" class="node">
<title>node_125070844582400</title>
<ellipse fill="none" stroke="black" cx="410.64" cy="-162" rx="105.08" ry="18"/>
<text text-anchor="middle" x="410.64" y="-158.3" font-family="Times,serif" font-size="14.00">DECLARATION&#45;LIST</text>
</g>
<!-- node_125070844584896&#45;&gt;node_125070844582400 -->
<g id="edge3" class="edge">
<title>node_125070844584896&#45;&gt;node_125070844582400</title>
<path fill="none" stroke="black" d="M410.64,-215.7C410.64,-207.98 410.64,-198.71 410.64,-190.11"/>
<polygon fill="black" stroke="black" points="414.14,-190.1 410.64,-180.1 407.14,-190.1 414.14,-190.1"/>
</g>
<!-- node_125070844583216 -->
<g id="node5" class="node">
<title>node_125070844583216</title>
<ellipse fill="none" stroke="black" cx="161.64" cy="-90" rx="143.77" ry="18"/>
<text text-anchor="middle" x="161.64" y="-86.3" font-family="Times,serif" font-size="14.00">DECLARATION (&quot;int&quot; &quot;y&quot; &quot;;&quot;)</text>
</g>
<!-- node_125070844582400&#45;&gt;node_125070844583216 -->
<g id="edge4" class="edge">
<title>node_125070844582400&#45;&gt;node_125070844583216</title>
<path fill="none" stroke="black" d="M358.44,-146.33C320.15,-135.56 267.91,-120.87 226.87,-109.34"/>
<polygon fill="black" stroke="black" points="227.8,-105.96 217.22,-106.63 225.9,-112.7 227.8,-105.96"/>
</g>
<!-- node_125070844583264 -->
<g id="node6" class="node">
<title>node_125070844583264</title>
<ellipse fill="none" stroke="black" cx="443.64" cy="-90" rx="120.48" ry="18"/>
<text text-anchor="middle" x="443.64" y="-86.3" font-family="Times,serif" font-size="14.00">DECLARATION&#45;LIST (ε)</text>
</g>
<!-- node_125070844582400&#45;&gt;node_125070844583264 -->
<g id="edge5" class="edge">
<title>node_125070844582400&#45;&gt;node_125070844583264</title>
<path fill="none" stroke="black" d="M418.79,-143.7C422.55,-135.73 427.09,-126.1 431.26,-117.26"/>
<polygon fill="black" stroke="black" points="434.48,-118.64 435.57,-108.1 428.14,-115.66 434.48,-118.64"/>
</g>
<!-- node_125070841732160 -->
<g id="node8" class="node">
<title>node_125070841732160</title>
<ellipse fill="none" stroke="black" cx="729.64" cy="-162" rx="195.77" ry="18"/>
<text text-anchor="middle" x="729.64" y="-158.3" font-family="Times,serif" font-size="14.00">STATEMENT (&quot;x&quot; &quot;=&quot; EXPRESSION &quot;;&quot;)</text>
</g>
<!-- node_125070841731200&#45;&gt;node_125070841732160 -->
<g id="edge7" class="edge">
<title>node_125070841731200&#45;&gt;node_125070841732160</title>
<path fill="none" stroke="black" d="M759.95,-216.05C755.36,-208.01 749.75,-198.2 744.62,-189.23"/>
<polygon fill="black" stroke="black" points="747.51,-187.22 739.51,-180.28 741.43,-190.69 747.51,-187.22"/>
</g>
<!-- node_125070841732208 -->
<g id="node10" class="node">
<title>node_125070841732208</title>
<ellipse fill="none" stroke="black" cx="1037.64" cy="-162" rx="94.48" ry="18"/>
<text text-anchor="middle" x="1037.64" y="-158.3" font-family="Times,serif" font-size="14.00">STATEMENT&#45;LIST</text>
</g>
<!-- node_125070841731200&#45;&gt;node_125070841732208 -->
<g id="edge9" class="edge">
<title>node_125070841731200&#45;&gt;node_125070841732208</title>
<path fill="none" stroke="black" d="M822.91,-219.09C866.57,-207.68 928.46,-191.52 974.58,-179.47"/>
<polygon fill="black" stroke="black" points="975.68,-182.8 984.47,-176.89 973.91,-176.03 975.68,-182.8"/>
</g>
<!-- node_125070841732256 -->
<g id="node9" class="node">
<title>node_125070841732256</title>
<ellipse fill="none" stroke="black" cx="719.64" cy="-90" rx="104.78" ry="18"/>
<text text-anchor="middle" x="719.64" y="-86.3" font-family="Times,serif" font-size="14.00">EXPRESSION (&quot;10&quot;)</text>
</g>
<!-- node_125070841732160&#45;&gt;node_125070841732256 -->
<g id="edge8" class="edge">
<title>node_125070841732160&#45;&gt;node_125070841732256</title>
<path fill="none" stroke="black" d="M727.17,-143.7C726.06,-135.98 724.74,-126.71 723.51,-118.11"/>
<polygon fill="black" stroke="black" points="726.96,-117.51 722.08,-108.1 720.03,-118.5 726.96,-117.51"/>
</g>
<!-- node_125070841732304 -->
<g id="node11" class="node">
<title>node_125070841732304</title>
<ellipse fill="none" stroke="black" cx="1037.64" cy="-90" rx="195.77" ry="18"/>
<text text-anchor="middle" x="1037.64" y="-86.3" font-family="Times,serif" font-size="14.00">STATEMENT (&quot;y&quot; &quot;=&quot; EXPRESSION &quot;;&quot;)</text>
</g>
<!-- node_125070841732208&#45;&gt;node_125070841732304 -->
<g id="edge10" class="edge">
<title>node_125070841732208&#45;&gt;node_125070841732304</title>
<path fill="none" stroke="black" d="M1037.64,-143.7C1037.64,-135.98 1037.64,-126.71 1037.64,-118.11"/>
<polygon fill="black" stroke="black" points="1041.14,-118.1 1037.64,-108.1 1034.14,-118.1 1041.14,-118.1"/>
</g>
<!-- node_125070841732400 -->
<g id="node13" class="node">
<title>node_125070841732400</title>
<ellipse fill="none" stroke="black" cx="1359.64" cy="-90" rx="108.58" ry="18"/>
<text text-anchor="middle" x="1359.64" y="-86.3" font-family="Times,serif" font-size="14.00">STATEMENT&#45;LIST (ε)</text>
</g>
<!-- node_125070841732208&#45;&gt;node_125070841732400 -->
<g id="edge12" class="edge">
<title>node_125070841732208&#45;&gt;node_125070841732400</title>
<path fill="none" stroke="black" d="M1097.45,-148C1150.89,-136.38 1229.36,-119.32 1286.52,-106.9"/>
<polygon fill="black" stroke="black" points="1287.54,-110.25 1296.57,-104.71 1286.05,-103.41 1287.54,-110.25"/>
</g>
<!-- node_125070841732352 -->
<g id="node12" class="node">
<title>node_125070841732352</title>
<ellipse fill="none" stroke="black" cx="1037.64" cy="-18" rx="135.68" ry="18"/>
<text text-anchor="middle" x="1037.64" y="-14.3" font-family="Times,serif" font-size="14.00">EXPRESSION (&quot;x&quot; &quot;+&quot; &quot;5&quot;)</text>
</g>
<!-- node_125070841732304&#45;&gt;node_125070841732352 -->
<g id="edge11" class="edge">
<title>node_125070841732304&#45;&gt;node_125070841732352</title>
<path fill="none" stroke="black" d="M1037.64,-71.7C1037.64,-63.98 1037.64,-54.71 1037.64,-46.11"/>
<polygon fill="black" stroke="black" points="1041.14,-46.1 1037.64,-36.1 1034.14,-46.1 1041.14,-46.1"/>
</g>
<!-- node_125070841732496 -->
<g id="node15" class="node">
<title>node_125070841732496</title>
<ellipse fill="none" stroke="black" cx="1248.64" cy="-162" rx="98.58" ry="18"/>
<text text-anchor="middle" x="1248.64" y="-158.3" font-family="Times,serif" font-size="14.00">EXPRESSION (&quot;y&quot;)</text>
</g>
<!-- node_125070841732448&#45;&gt;node_125070841732496 -->
<g id="edge14" class="edge">
<title>node_125070841732448&#45;&gt;node_125070841732496</title>
<path fill="none" stroke="black" d="M1217.77,-215.7C1222.49,-207.64 1228.2,-197.89 1233.42,-188.98"/>
<polygon fill="black" stroke="black" points="1236.59,-190.5 1238.62,-180.1 1230.54,-186.96 1236.59,-190.5"/>
</g>
</g>
</svg>
