<?xml version="1.0" encoding="UTF-8" standalone="no"?>
<!DOCTYPE svg PUBLIC "-//W3C//DTD SVG 1.1//EN"
 "http://www.w3.org/Graphics/SVG/1.1/DTD/svg11.dtd">
<!-- Generated by graphviz version 2.43.0 (0)
 -->
<!-- Title: %3 Pages: 1 -->
<svg width="1263pt" height="404pt"
 viewBox="0.00 0.00 1263.00 404.00" xmlns="http://www.w3.org/2000/svg" xmlns:xlink="http://www.w3.org/1999/xlink">
<g id="graph0" class="graph" transform="scale(1 1) rotate(0) translate(4 400)">
<title>%3</title>
<polygon fill="#f6f3eb" stroke="transparent" points="-4,4 -4,-400 1259,-400 1259,4 -4,4"/>
<!-- node_129206798457008 -->
<g id="node1" class="node">
<title>node_129206798457008</title>
<polygon fill="none" stroke="black" points="826,-396 732,-396 732,-360 826,-360 826,-396"/>
<text text-anchor="middle" x="779" y="-374.3" font-family="Times,serif" font-size="14.00">PROGRAM</text>
</g>
<!-- node_129206799853440 -->
<g id="node2" class="node">
<title>node_129206799853440</title>
<polygon fill="none" stroke="black" points="450,-324 288,-324 288,-288 450,-288 450,-324"/>
<text text-anchor="middle" x="369" y="-302.3" font-family="Times,serif" font-size="14.00">DECLARATION&#45;LIST</text>
</g>
<!-- node_129206798457008&#45;&gt;node_129206799853440 -->
<g id="edge1" class="edge">
<title>node_129206798457008&#45;&gt;node_129206799853440</title>
<path fill="none" stroke="black" d="M731.97,-368.97C665.97,-357.7 544.56,-336.97 460.44,-322.61"/>
<polygon fill="black" stroke="black" points="460.81,-319.12 450.37,-320.89 459.63,-326.02 460.81,-319.12"/>
</g>
<!-- node_129206798775600 -->
<g id="node14" class="node">
<title>node_129206798775600</title>
<polygon fill="none" stroke="black" points="851.5,-324 706.5,-324 706.5,-288 851.5,-288 851.5,-324"/>
<text text-anchor="middle" x="779" y="-302.3" font-family="Times,serif" font-size="14.00">STATEMENT&#45;LIST</text>
</g>
<!-- node_129206798457008&#45;&gt;node_129206798775600 -->
<g id="edge13" class="edge">
<title>node_129206798457008&#45;&gt;node_129206798775600</title>
<path fill="none" stroke="black" d="M779,-359.7C779,-351.98 779,-342.71 779,-334.11"/>
<polygon fill="black" stroke="black" points="782.5,-334.1 779,-324.1 775.5,-334.1 782.5,-334.1"/>
</g>
<!-- node_129206798776608 -->
<g id="node30" class="node">
<title>node_129206798776608</title>
<polygon fill="none" stroke="black" points="1157,-324 979,-324 979,-288 1157,-288 1157,-324"/>
<text text-anchor="middle" x="1068" y="-302.3" font-family="Times,serif" font-size="14.00">RETURN&#45;STATEMENT</text>
</g>
<!-- node_129206798457008&#45;&gt;node_129206798776608 -->
<g id="edge29" class="edge">
<title>node_129206798457008&#45;&gt;node_129206798776608</title>
<path fill="none" stroke="black" d="M826.08,-365.6C869.8,-355.01 935.81,-339.02 987.83,-326.42"/>
<polygon fill="black" stroke="black" points="988.81,-329.78 997.71,-324.03 987.16,-322.98 988.81,-329.78"/>
</g>
<!-- node_129206801625072 -->
<g id="node3" class="node">
<title>node_129206801625072</title>
<polygon fill="none" stroke="black" points="197.5,-252 72.5,-252 72.5,-216 197.5,-216 197.5,-252"/>
<text text-anchor="middle" x="135" y="-230.3" font-family="Times,serif" font-size="14.00">DECLARATION</text>
</g>
<!-- node_129206799853440&#45;&gt;node_129206801625072 -->
<g id="edge2" class="edge">
<title>node_129206799853440&#45;&gt;node_129206801625072</title>
<path fill="none" stroke="black" d="M312.06,-287.97C278.79,-278.01 236.64,-265.41 201.81,-254.99"/>
<polygon fill="black" stroke="black" points="202.78,-251.62 192.2,-252.11 200.78,-258.33 202.78,-251.62"/>
</g>
<!-- node_129206798775264 -->
<g id="node7" class="node">
<title>node_129206798775264</title>
<polygon fill="none" stroke="black" points="450,-252 288,-252 288,-216 450,-216 450,-252"/>
<text text-anchor="middle" x="369" y="-230.3" font-family="Times,serif" font-size="14.00">DECLARATION&#45;LIST</text>
</g>
<!-- node_129206799853440&#45;&gt;node_129206798775264 -->
<g id="edge6" class="edge">
<title>node_129206799853440&#45;&gt;node_129206798775264</title>
<path fill="none" stroke="black" d="M369,-287.7C369,-279.98 369,-270.71 369,-262.11"/>
<polygon fill="black" stroke="black" points="372.5,-262.1 369,-252.1 365.5,-262.1 372.5,-262.1"/>
</g>
<!-- node_129206801625264 -->
<g id="node4" class="node">
<title>node_129206801625264</title>
<polygon fill="none" stroke="black" points="54,-180 0,-180 0,-144 54,-144 54,-180"/>
<text text-anchor="middle" x="27" y="-158.3" font-family="Times,serif" font-size="14.00">&quot;int&quot;</text>
</g>
<!-- node_129206801625072&#45;&gt;node_129206801625264 -->
<g id="edge3" class="edge">
<title>node_129206801625072&#45;&gt;node_129206801625264</title>
<path fill="none" stroke="black" d="M108.58,-215.88C94.59,-206.81 77.22,-195.55 62.11,-185.76"/>
<polygon fill="black" stroke="black" points="63.82,-182.69 53.52,-180.19 60.01,-188.57 63.82,-182.69"/>
</g>
<!-- node_129206801626176 -->
<g id="node5" class="node">
<title>node_129206801626176</title>
<polygon fill="none" stroke="black" points="126,-180 72,-180 72,-144 126,-144 126,-180"/>
<text text-anchor="middle" x="99" y="-158.3" font-family="Times,serif" font-size="14.00">&quot;x&quot;</text>
</g>
<!-- node_129206801625072&#45;&gt;node_129206801626176 -->
<g id="edge4" class="edge">
<title>node_129206801625072&#45;&gt;node_129206801626176</title>
<path fill="none" stroke="black" d="M126.1,-215.7C122,-207.73 117.05,-198.1 112.51,-189.26"/>
<polygon fill="black" stroke="black" points="115.48,-187.4 107.8,-180.1 109.26,-190.6 115.48,-187.4"/>
</g>
<!-- node_129206798774304 -->
<g id="node6" class="node">
<title>node_129206798774304</title>
<polygon fill="none" stroke="black" points="198,-180 144,-180 144,-144 198,-144 198,-180"/>
<text text-anchor="middle" x="171" y="-158.3" font-family="Times,serif" font-size="14.00">&quot;;&quot;</text>
</g>
<!-- node_129206801625072&#45;&gt;node_129206798774304 -->
<g id="edge5" class="edge">
<title>node_129206801625072&#45;&gt;node_129206798774304</title>
<path fill="none" stroke="black" d="M143.9,-215.7C148,-207.73 152.95,-198.1 157.49,-189.26"/>
<polygon fill="black" stroke="black" points="160.74,-190.6 162.2,-180.1 154.52,-187.4 160.74,-190.6"/>
</g>
<!-- node_129206798775360 -->
<g id="node8" class="node">
<title>node_129206798775360</title>
<polygon fill="none" stroke="black" points="341.5,-180 216.5,-180 216.5,-144 341.5,-144 341.5,-180"/>
<text text-anchor="middle" x="279" y="-158.3" font-family="Times,serif" font-size="14.00">DECLARATION</text>
</g>
<!-- node_129206798775264&#45;&gt;node_129206798775360 -->
<g id="edge7" class="edge">
<title>node_129206798775264&#45;&gt;node_129206798775360</title>
<path fill="none" stroke="black" d="M346.75,-215.7C335.42,-206.88 321.47,-196.03 309.18,-186.47"/>
<polygon fill="black" stroke="black" points="311.03,-183.48 300.99,-180.1 306.74,-189.01 311.03,-183.48"/>
</g>
<!-- node_129206798775504 -->
<g id="node12" class="node">
<title>node_129206798775504</title>
<polygon fill="none" stroke="black" points="522,-180 360,-180 360,-144 522,-144 522,-180"/>
<text text-anchor="middle" x="441" y="-158.3" font-family="Times,serif" font-size="14.00">DECLARATION&#45;LIST</text>
</g>
<!-- node_129206798775264&#45;&gt;node_129206798775504 -->
<g id="edge11" class="edge">
<title>node_129206798775264&#45;&gt;node_129206798775504</title>
<path fill="none" stroke="black" d="M386.8,-215.7C395.6,-207.14 406.38,-196.66 416,-187.3"/>
<polygon fill="black" stroke="black" points="418.68,-189.58 423.41,-180.1 413.8,-184.57 418.68,-189.58"/>
</g>
<!-- node_129206798775312 -->
<g id="node9" class="node">
<title>node_129206798775312</title>
<polygon fill="none" stroke="black" points="234,-108 180,-108 180,-72 234,-72 234,-108"/>
<text text-anchor="middle" x="207" y="-86.3" font-family="Times,serif" font-size="14.00">&quot;int&quot;</text>
</g>
<!-- node_129206798775360&#45;&gt;node_129206798775312 -->
<g id="edge8" class="edge">
<title>node_129206798775360&#45;&gt;node_129206798775312</title>
<path fill="none" stroke="black" d="M261.2,-143.7C252.4,-135.14 241.62,-124.66 232,-115.3"/>
<polygon fill="black" stroke="black" points="234.2,-112.57 224.59,-108.1 229.32,-117.58 234.2,-112.57"/>
</g>
<!-- node_129206798775408 -->
<g id="node10" class="node">
<title>node_129206798775408</title>
<polygon fill="none" stroke="black" points="306,-108 252,-108 252,-72 306,-72 306,-108"/>
<text text-anchor="middle" x="279" y="-86.3" font-family="Times,serif" font-size="14.00">&quot;y&quot;</text>
</g>
<!-- node_129206798775360&#45;&gt;node_129206798775408 -->
<g id="edge9" class="edge">
<title>node_129206798775360&#45;&gt;node_129206798775408</title>
<path fill="none" stroke="black" d="M279,-143.7C279,-135.98 279,-126.71 279,-118.11"/>
<polygon fill="black" stroke="black" points="282.5,-118.1 279,-108.1 275.5,-118.1 282.5,-118.1"/>
</g>
<!-- node_129206798775456 -->
<g id="node11" class="node">
<title>node_129206798775456</title>
<polygon fill="none" stroke="black" points="378,-108 324,-108 324,-72 378,-72 378,-108"/>
<text text-anchor="middle" x="351" y="-86.3" font-family="Times,serif" font-size="14.00">&quot;;&quot;</text>
</g>
<!-- node_129206798775360&#45;&gt;node_129206798775456 -->
<g id="edge10" class="edge">
<title>node_129206798775360&#45;&gt;node_129206798775456</title>
<path fill="none" stroke="black" d="M296.8,-143.7C305.6,-135.14 316.38,-124.66 326,-115.3"/>
<polygon fill="black" stroke="black" points="328.68,-117.58 333.41,-108.1 323.8,-112.57 328.68,-117.58"/>
</g>
<!-- node_129206798775552 -->
<g id="node13" class="node">
<title>node_129206798775552</title>
<polygon fill="none" stroke="black" points="468,-108 414,-108 414,-72 468,-72 468,-108"/>
<text text-anchor="middle" x="441" y="-86.3" font-family="Times,serif" font-size="14.00">ε</text>
</g>
<!-- node_129206798775504&#45;&gt;node_129206798775552 -->
<g id="edge12" class="edge">
<title>node_129206798775504&#45;&gt;node_129206798775552</title>
<path fill="none" stroke="black" d="M441,-143.7C441,-135.98 441,-126.71 441,-118.11"/>
<polygon fill="black" stroke="black" points="444.5,-118.1 441,-108.1 437.5,-118.1 444.5,-118.1"/>
</g>
<!-- node_129206798775648 -->
<g id="node15" class="node">
<title>node_129206798775648</title>
<polygon fill="none" stroke="black" points="737.5,-252 628.5,-252 628.5,-216 737.5,-216 737.5,-252"/>
<text text-anchor="middle" x="683" y="-230.3" font-family="Times,serif" font-size="14.00">STATEMENT</text>
</g>
<!-- node_129206798775600&#45;&gt;node_129206798775648 -->
<g id="edge14" class="edge">
<title>node_129206798775600&#45;&gt;node_129206798775648</title>
<path fill="none" stroke="black" d="M755.27,-287.7C743.06,-278.8 728.01,-267.82 714.82,-258.2"/>
<polygon fill="black" stroke="black" points="716.6,-255.17 706.46,-252.1 712.48,-260.82 716.6,-255.17"/>
</g>
<!-- node_129206798775888 -->
<g id="node20" class="node">
<title>node_129206798775888</title>
<polygon fill="none" stroke="black" points="944.5,-252 799.5,-252 799.5,-216 944.5,-216 944.5,-252"/>
<text text-anchor="middle" x="872" y="-230.3" font-family="Times,serif" font-size="14.00">STATEMENT&#45;LIST</text>
</g>
<!-- node_129206798775600&#45;&gt;node_129206798775888 -->
<g id="edge19" class="edge">
<title>node_129206798775600&#45;&gt;node_129206798775888</title>
<path fill="none" stroke="black" d="M801.99,-287.7C813.81,-278.8 828.39,-267.82 841.18,-258.2"/>
<polygon fill="black" stroke="black" points="843.39,-260.91 849.28,-252.1 839.18,-255.32 843.39,-260.91"/>
</g>
<!-- node_129206798775696 -->
<g id="node16" class="node">
<title>node_129206798775696</title>
<polygon fill="none" stroke="black" points="594,-180 540,-180 540,-144 594,-144 594,-180"/>
<text text-anchor="middle" x="567" y="-158.3" font-family="Times,serif" font-size="14.00">&quot;x&quot;</text>
</g>
<!-- node_129206798775648&#45;&gt;node_129206798775696 -->
<g id="edge15" class="edge">
<title>node_129206798775648&#45;&gt;node_129206798775696</title>
<path fill="none" stroke="black" d="M654.62,-215.88C639.12,-206.52 619.75,-194.83 603.17,-184.83"/>
<polygon fill="black" stroke="black" points="604.66,-181.64 594.29,-179.47 601.04,-187.63 604.66,-181.64"/>
</g>
<!-- node_129206798775744 -->
<g id="node17" class="node">
<title>node_129206798775744</title>
<polygon fill="none" stroke="black" points="666,-180 612,-180 612,-144 666,-144 666,-180"/>
<text text-anchor="middle" x="639" y="-158.3" font-family="Times,serif" font-size="14.00">&quot;=&quot;</text>
</g>
<!-- node_129206798775648&#45;&gt;node_129206798775744 -->
<g id="edge16" class="edge">
<title>node_129206798775648&#45;&gt;node_129206798775744</title>
<path fill="none" stroke="black" d="M672.12,-215.7C667.01,-207.56 660.8,-197.69 655.16,-188.7"/>
<polygon fill="black" stroke="black" points="658.04,-186.71 649.75,-180.1 652.11,-190.43 658.04,-186.71"/>
</g>
<!-- node_129206798775792 -->
<g id="node18" class="node">
<title>node_129206798775792</title>
<polygon fill="none" stroke="black" points="799.5,-180 684.5,-180 684.5,-144 799.5,-144 799.5,-180"/>
<text text-anchor="middle" x="742" y="-158.3" font-family="Times,serif" font-size="14.00">EXPRESSION</text>
</g>
<!-- node_129206798775648&#45;&gt;node_129206798775792 -->
<g id="edge17" class="edge">
<title>node_129206798775648&#45;&gt;node_129206798775792</title>
<path fill="none" stroke="black" d="M697.58,-215.7C704.66,-207.3 713.28,-197.07 721.05,-187.86"/>
<polygon fill="black" stroke="black" points="723.81,-190.01 727.58,-180.1 718.46,-185.49 723.81,-190.01"/>
</g>
<!-- node_129206798775840 -->
<g id="node19" class="node">
<title>node_129206798775840</title>
<polygon fill="none" stroke="black" points="755,-108 701,-108 701,-72 755,-72 755,-108"/>
<text text-anchor="middle" x="728" y="-86.3" font-family="Times,serif" font-size="14.00">&quot;10&quot;</text>
</g>
<!-- node_129206798775792&#45;&gt;node_129206798775840 -->
<g id="edge18" class="edge">
<title>node_129206798775792&#45;&gt;node_129206798775840</title>
<path fill="none" stroke="black" d="M738.54,-143.7C737,-135.98 735.14,-126.71 733.42,-118.11"/>
<polygon fill="black" stroke="black" points="736.81,-117.22 731.42,-108.1 729.95,-118.6 736.81,-117.22"/>
</g>
<!-- node_129206798775936 -->
<g id="node21" class="node">
<title>node_129206798775936</title>
<polygon fill="none" stroke="black" points="926.5,-180 817.5,-180 817.5,-144 926.5,-144 926.5,-180"/>
<text text-anchor="middle" x="872" y="-158.3" font-family="Times,serif" font-size="14.00">STATEMENT</text>
</g>
<!-- node_129206798775888&#45;&gt;node_129206798775936 -->
<g id="edge20" class="edge">
<title>node_129206798775888&#45;&gt;node_129206798775936</title>
<path fill="none" stroke="black" d="M872,-215.7C872,-207.98 872,-198.71 872,-190.11"/>
<polygon fill="black" stroke="black" points="875.5,-190.1 872,-180.1 868.5,-190.1 875.5,-190.1"/>
</g>
<!-- node_129206798776416 -->
<g id="node28" class="node">
<title>node_129206798776416</title>
<polygon fill="none" stroke="black" points="1089.5,-180 944.5,-180 944.5,-144 1089.5,-144 1089.5,-180"/>
<text text-anchor="middle" x="1017" y="-158.3" font-family="Times,serif" font-size="14.00">STATEMENT&#45;LIST</text>
</g>
<!-- node_129206798775888&#45;&gt;node_129206798776416 -->
<g id="edge27" class="edge">
<title>node_129206798775888&#45;&gt;node_129206798776416</title>
<path fill="none" stroke="black" d="M907.47,-215.88C927.12,-206.39 951.72,-194.51 972.63,-184.42"/>
<polygon fill="black" stroke="black" points="974.16,-187.57 981.64,-180.07 971.12,-181.26 974.16,-187.57"/>
</g>
<!-- node_129206798775984 -->
<g id="node22" class="node">
<title>node_129206798775984</title>
<polygon fill="none" stroke="black" points="827,-108 773,-108 773,-72 827,-72 827,-108"/>
<text text-anchor="middle" x="800" y="-86.3" font-family="Times,serif" font-size="14.00">&quot;y&quot;</text>
</g>
<!-- node_129206798775936&#45;&gt;node_129206798775984 -->
<g id="edge21" class="edge">
<title>node_129206798775936&#45;&gt;node_129206798775984</title>
<path fill="none" stroke="black" d="M854.2,-143.7C845.4,-135.14 834.62,-124.66 825,-115.3"/>
<polygon fill="black" stroke="black" points="827.2,-112.57 817.59,-108.1 822.32,-117.58 827.2,-112.57"/>
</g>
<!-- node_129206798776032 -->
<g id="node23" class="node">
<title>node_129206798776032</title>
<polygon fill="none" stroke="black" points="899,-108 845,-108 845,-72 899,-72 899,-108"/>
<text text-anchor="middle" x="872" y="-86.3" font-family="Times,serif" font-size="14.00">&quot;=&quot;</text>
</g>
<!-- node_129206798775936&#45;&gt;node_129206798776032 -->
<g id="edge22" class="edge">
<title>node_129206798775936&#45;&gt;node_129206798776032</title>
<path fill="none" stroke="black" d="M872,-143.7C872,-135.98 872,-126.71 872,-118.11"/>
<polygon fill="black" stroke="black" points="875.5,-118.1 872,-108.1 868.5,-118.1 875.5,-118.1"/>
</g>
<!-- node_129206798776080 -->
<g id="node24" class="node">
<title>node_129206798776080</title>
<polygon fill="none" stroke="black" points="1032.5,-108 917.5,-108 917.5,-72 1032.5,-72 1032.5,-108"/>
<text text-anchor="middle" x="975" y="-86.3" font-family="Times,serif" font-size="14.00">EXPRESSION</text>
</g>
<!-- node_129206798775936&#45;&gt;node_129206798776080 -->
<g id="edge23" class="edge">
<title>node_129206798775936&#45;&gt;node_129206798776080</title>
<path fill="none" stroke="black" d="M897.2,-143.88C910.41,-134.89 926.79,-123.76 941.11,-114.03"/>
<polygon fill="black" stroke="black" points="943.4,-116.71 949.71,-108.19 939.47,-110.92 943.4,-116.71"/>
</g>
<!-- node_129206798776128 -->
<g id="node25" class="node">
<title>node_129206798776128</title>
<polygon fill="none" stroke="black" points="930,-36 876,-36 876,0 930,0 930,-36"/>
<text text-anchor="middle" x="903" y="-14.3" font-family="Times,serif" font-size="14.00">&quot;x&quot;</text>
</g>
<!-- node_129206798776080&#45;&gt;node_129206798776128 -->
<g id="edge24" class="edge">
<title>node_129206798776080&#45;&gt;node_129206798776128</title>
<path fill="none" stroke="black" d="M957.2,-71.7C948.4,-63.14 937.62,-52.66 928,-43.3"/>
<polygon fill="black" stroke="black" points="930.2,-40.57 920.59,-36.1 925.32,-45.58 930.2,-40.57"/>
</g>
<!-- node_129206798776224 -->
<g id="node26" class="node">
<title>node_129206798776224</title>
<polygon fill="none" stroke="black" points="1002,-36 948,-36 948,0 1002,0 1002,-36"/>
<text text-anchor="middle" x="975" y="-14.3" font-family="Times,serif" font-size="14.00">&quot;+&quot;</text>
</g>
<!-- node_129206798776080&#45;&gt;node_129206798776224 -->
<g id="edge25" class="edge">
<title>node_129206798776080&#45;&gt;node_129206798776224</title>
<path fill="none" stroke="black" d="M975,-71.7C975,-63.98 975,-54.71 975,-46.11"/>
<polygon fill="black" stroke="black" points="978.5,-46.1 975,-36.1 971.5,-46.1 978.5,-46.1"/>
</g>
<!-- node_129206798776320 -->
<g id="node27" class="node">
<title>node_129206798776320</title>
<polygon fill="none" stroke="black" points="1074,-36 1020,-36 1020,0 1074,0 1074,-36"/>
<text text-anchor="middle" x="1047" y="-14.3" font-family="Times,serif" font-size="14.00">&quot;5&quot;</text>
</g>
<!-- node_129206798776080&#45;&gt;node_129206798776320 -->
<g id="edge26" class="edge">
<title>node_129206798776080&#45;&gt;node_129206798776320</title>
<path fill="none" stroke="black" d="M992.8,-71.7C1001.6,-63.14 1012.38,-52.66 1022,-43.3"/>
<polygon fill="black" stroke="black" points="1024.68,-45.58 1029.41,-36.1 1019.8,-40.57 1024.68,-45.58"/>
</g>
<!-- node_129206798776512 -->
<g id="node29" class="node">
<title>node_129206798776512</title>
<polygon fill="none" stroke="black" points="1105,-108 1051,-108 1051,-72 1105,-72 1105,-108"/>
<text text-anchor="middle" x="1078" y="-86.3" font-family="Times,serif" font-size="14.00">ε</text>
</g>
<!-- node_129206798776416&#45;&gt;node_129206798776512 -->
<g id="edge28" class="edge">
<title>node_129206798776416&#45;&gt;node_129206798776512</title>
<path fill="none" stroke="black" d="M1032.08,-143.7C1039.39,-135.3 1048.31,-125.07 1056.34,-115.86"/>
<polygon fill="black" stroke="black" points="1059.16,-117.94 1063.09,-108.1 1053.89,-113.34 1059.16,-117.94"/>
</g>
<!-- node_129206798776704 -->
<g id="node31" class="node">
<title>node_129206798776704</title>
<polygon fill="none" stroke="black" points="1049,-252 973,-252 973,-216 1049,-216 1049,-252"/>
<text text-anchor="middle" x="1011" y="-230.3" font-family="Times,serif" font-size="14.00">&quot;return&quot;</text>
</g>
<!-- node_129206798776608&#45;&gt;node_129206798776704 -->
<g id="edge30" class="edge">
<title>node_129206798776608&#45;&gt;node_129206798776704</title>
<path fill="none" stroke="black" d="M1053.91,-287.7C1047.08,-279.3 1038.74,-269.07 1031.24,-259.86"/>
<polygon fill="black" stroke="black" points="1033.96,-257.65 1024.93,-252.1 1028.53,-262.07 1033.96,-257.65"/>
</g>
<!-- node_129206798776800 -->
<g id="node32" class="node">
<title>node_129206798776800</title>
<polygon fill="none" stroke="black" points="1182.5,-252 1067.5,-252 1067.5,-216 1182.5,-216 1182.5,-252"/>
<text text-anchor="middle" x="1125" y="-230.3" font-family="Times,serif" font-size="14.00">EXPRESSION</text>
</g>
<!-- node_129206798776608&#45;&gt;node_129206798776800 -->
<g id="edge31" class="edge">
<title>node_129206798776608&#45;&gt;node_129206798776800</title>
<path fill="none" stroke="black" d="M1082.09,-287.7C1088.92,-279.3 1097.26,-269.07 1104.76,-259.86"/>
<polygon fill="black" stroke="black" points="1107.47,-262.07 1111.07,-252.1 1102.04,-257.65 1107.47,-262.07"/>
</g>
<!-- node_129206798776992 -->
<g id="node34" class="node">
<title>node_129206798776992</title>
<polygon fill="none" stroke="black" points="1255,-252 1201,-252 1201,-216 1255,-216 1255,-252"/>
<text text-anchor="middle" x="1228" y="-230.3" font-family="Times,serif" font-size="14.00">&quot;;&quot;</text>
</g>
<!-- node_129206798776608&#45;&gt;node_129206798776992 -->
<g id="edge33" class="edge">
<title>node_129206798776608&#45;&gt;node_129206798776992</title>
<path fill="none" stroke="black" d="M1108.94,-287.95C1131.1,-278.62 1159.13,-266.66 1191.64,-252.09"/>
<polygon fill="black" stroke="black" points="1193.24,-255.21 1200.92,-247.92 1190.37,-248.83 1193.24,-255.21"/>
</g>
<!-- node_129206798776896 -->
<g id="node33" class="node">
<title>node_129206798776896</title>
<polygon fill="none" stroke="black" points="1162,-180 1108,-180 1108,-144 1162,-144 1162,-180"/>
<text text-anchor="middle" x="1135" y="-158.3" font-family="Times,serif" font-size="14.00">&quot;y&quot;</text>
</g>
<!-- node_129206798776800&#45;&gt;node_129206798776896 -->
<g id="edge32" class="edge">
<title>node_129206798776800&#45;&gt;node_129206798776896</title>
<path fill="none" stroke="black" d="M1127.47,-215.7C1128.57,-207.98 1129.9,-198.71 1131.13,-190.11"/>
<polygon fill="black" stroke="black" points="1134.61,-190.5 1132.56,-180.1 1127.68,-189.51 1134.61,-190.5"/>
</g>
</g>
</svg>
