<?xml version="1.0" encoding="utf-8" standalone="no"?>
<!DOCTYPE svg PUBLIC "-//W3C//DTD SVG 1.1//EN"
  "http://www.w3.org/Graphics/SVG/1.1/DTD/svg11.dtd">
<svg xmlns:xlink="http://www.w3.org/1999/xlink" width="573.181403pt" height="28.0485pt" viewBox="0 0 573.181403 28.0485" xmlns="http://www.w3.org/2000/svg" version="1.1">
 <metadata>
  <rdf:RDF xmlns:dc="http://purl.org/dc/elements/1.1/" xmlns:cc="http://creativecommons.org/ns#" xmlns:rdf="http://www.w3.org/1999/02/22-rdf-syntax-ns#">
   <cc:Work>
    <dc:type rdf:resource="http://purl.org/dc/dcmitype/StillImage"/>
    <dc:date>2025-02-23T19:42:18.542108</dc:date>
    <dc:format>image/svg+xml</dc:format>
    <dc:creator>
     <cc:Agent>
      <dc:title>Matplotlib v3.10.0, https://matplotlib.org/</dc:title>
     </cc:Agent>
    </dc:creator>
   </cc:Work>
  </rdf:RDF>
 </metadata>
 <defs>
  <style type="text/css">*{stroke-linejoin: round; stroke-linecap: butt}</style>
 </defs>
 <g id="figure_1">
  <g id="patch_1">
   <path d="M 0 28.0485 
L 573.181403 28.0485 
L 573.181403 0 
L 0 0 
L 0 28.0485 
z
" style="fill: none; opacity: 0"/>
  </g>
  <g id="axes_1">
   <g id="text_1">
    <!-- $([A-Z]^* + [a-z]^*)^+([A-Z]^*[a-z]^*[0-9]^*)^*$ -->
    <g transform="translate(-1.049298 21.633) scale(0.24 -0.24)">
     <defs>
      <path id="DejaVuSans-28" d="M 1984 4856 
Q 1566 4138 1362 3434 
Q 1159 2731 1159 2009 
Q 1159 1288 1364 580 
Q 1569 -128 1984 -844 
L 1484 -844 
Q 1016 -109 783 600 
Q 550 1309 550 2009 
Q 550 2706 781 3412 
Q 1013 4119 1484 4856 
L 1984 4856 
z
" transform="scale(0.015625)"/>
      <path id="DejaVuSans-5b" d="M 550 4863 
L 1875 4863 
L 1875 4416 
L 1125 4416 
L 1125 -397 
L 1875 -397 
L 1875 -844 
L 550 -844 
L 550 4863 
z
" transform="scale(0.015625)"/>
      <path id="DejaVuSans-Oblique-41" d="M 2356 4666 
L 3072 4666 
L 3938 0 
L 3278 0 
L 3084 1197 
L 984 1197 
L 325 0 
L -341 0 
L 2356 4666 
z
M 2584 4044 
L 1275 1722 
L 2988 1722 
L 2584 4044 
z
" transform="scale(0.015625)"/>
      <path id="DejaVuSans-2212" d="M 678 2272 
L 4684 2272 
L 4684 1741 
L 678 1741 
L 678 2272 
z
" transform="scale(0.015625)"/>
      <path id="DejaVuSans-Oblique-5a" d="M 838 4666 
L 4500 4666 
L 4409 4184 
L 794 531 
L 3769 531 
L 3669 0 
L -141 0 
L -50 481 
L 3566 4134 
L 738 4134 
L 838 4666 
z
" transform="scale(0.015625)"/>
      <path id="DejaVuSans-5d" d="M 1947 4863 
L 1947 -844 
L 622 -844 
L 622 -397 
L 1369 -397 
L 1369 4416 
L 622 4416 
L 622 4863 
L 1947 4863 
z
" transform="scale(0.015625)"/>
      <path id="DejaVuSans-2a" d="M 3009 3897 
L 1888 3291 
L 3009 2681 
L 2828 2375 
L 1778 3009 
L 1778 1831 
L 1422 1831 
L 1422 3009 
L 372 2375 
L 191 2681 
L 1313 3291 
L 191 3897 
L 372 4206 
L 1422 3572 
L 1422 4750 
L 1778 4750 
L 1778 3572 
L 2828 4206 
L 3009 3897 
z
" transform="scale(0.015625)"/>
      <path id="DejaVuSans-2b" d="M 2944 4013 
L 2944 2272 
L 4684 2272 
L 4684 1741 
L 2944 1741 
L 2944 0 
L 2419 0 
L 2419 1741 
L 678 1741 
L 678 2272 
L 2419 2272 
L 2419 4013 
L 2944 4013 
z
" transform="scale(0.015625)"/>
      <path id="DejaVuSans-Oblique-61" d="M 3438 1997 
L 3047 0 
L 2472 0 
L 2578 531 
Q 2325 219 2001 64 
Q 1678 -91 1281 -91 
Q 834 -91 548 182 
Q 263 456 263 884 
Q 263 1497 752 1853 
Q 1241 2209 2100 2209 
L 2900 2209 
L 2931 2363 
Q 2938 2388 2941 2417 
Q 2944 2447 2944 2509 
Q 2944 2788 2717 2942 
Q 2491 3097 2081 3097 
Q 1800 3097 1504 3025 
Q 1209 2953 897 2809 
L 997 3341 
Q 1322 3463 1633 3523 
Q 1944 3584 2234 3584 
Q 2853 3584 3176 3315 
Q 3500 3047 3500 2534 
Q 3500 2431 3484 2292 
Q 3469 2153 3438 1997 
z
M 2816 1759 
L 2241 1759 
Q 1534 1759 1195 1570 
Q 856 1381 856 984 
Q 856 709 1029 553 
Q 1203 397 1509 397 
Q 1978 397 2328 733 
Q 2678 1069 2791 1631 
L 2816 1759 
z
" transform="scale(0.015625)"/>
      <path id="DejaVuSans-Oblique-7a" d="M 744 3500 
L 3475 3500 
L 3372 2975 
L 738 459 
L 2913 459 
L 2822 0 
L -19 0 
L 84 525 
L 2719 3041 
L 653 3041 
L 744 3500 
z
" transform="scale(0.015625)"/>
      <path id="DejaVuSans-29" d="M 513 4856 
L 1013 4856 
Q 1481 4119 1714 3412 
Q 1947 2706 1947 2009 
Q 1947 1309 1714 600 
Q 1481 -109 1013 -844 
L 513 -844 
Q 928 -128 1133 580 
Q 1338 1288 1338 2009 
Q 1338 2731 1133 3434 
Q 928 4138 513 4856 
z
" transform="scale(0.015625)"/>
      <path id="DejaVuSans-30" d="M 2034 4250 
Q 1547 4250 1301 3770 
Q 1056 3291 1056 2328 
Q 1056 1369 1301 889 
Q 1547 409 2034 409 
Q 2525 409 2770 889 
Q 3016 1369 3016 2328 
Q 3016 3291 2770 3770 
Q 2525 4250 2034 4250 
z
M 2034 4750 
Q 2819 4750 3233 4129 
Q 3647 3509 3647 2328 
Q 3647 1150 3233 529 
Q 2819 -91 2034 -91 
Q 1250 -91 836 529 
Q 422 1150 422 2328 
Q 422 3509 836 4129 
Q 1250 4750 2034 4750 
z
" transform="scale(0.015625)"/>
      <path id="DejaVuSans-39" d="M 703 97 
L 703 672 
Q 941 559 1184 500 
Q 1428 441 1663 441 
Q 2288 441 2617 861 
Q 2947 1281 2994 2138 
Q 2813 1869 2534 1725 
Q 2256 1581 1919 1581 
Q 1219 1581 811 2004 
Q 403 2428 403 3163 
Q 403 3881 828 4315 
Q 1253 4750 1959 4750 
Q 2769 4750 3195 4129 
Q 3622 3509 3622 2328 
Q 3622 1225 3098 567 
Q 2575 -91 1691 -91 
Q 1453 -91 1209 -44 
Q 966 3 703 97 
z
M 1959 2075 
Q 2384 2075 2632 2365 
Q 2881 2656 2881 3163 
Q 2881 3666 2632 3958 
Q 2384 4250 1959 4250 
Q 1534 4250 1286 3958 
Q 1038 3666 1038 3163 
Q 1038 2656 1286 2365 
Q 1534 2075 1959 2075 
z
" transform="scale(0.015625)"/>
     </defs>
     <use xlink:href="#DejaVuSans-28" transform="translate(0 0.765625)"/>
     <use xlink:href="#DejaVuSans-5b" transform="translate(39.013672 0.765625)"/>
     <use xlink:href="#DejaVuSans-Oblique-41" transform="translate(78.027344 0.765625)"/>
     <use xlink:href="#DejaVuSans-2212" transform="translate(165.917969 0.765625)"/>
     <use xlink:href="#DejaVuSans-Oblique-5a" transform="translate(269.189453 0.765625)"/>
     <use xlink:href="#DejaVuSans-5d" transform="translate(337.695312 0.765625)"/>
     <use xlink:href="#DejaVuSans-2a" transform="translate(391.303711 39.046875) scale(0.7)"/>
     <use xlink:href="#DejaVuSans-2b" transform="translate(462.158203 0.765625)"/>
     <use xlink:href="#DejaVuSans-5b" transform="translate(565.429688 0.765625)"/>
     <use xlink:href="#DejaVuSans-Oblique-61" transform="translate(604.443359 0.765625)"/>
     <use xlink:href="#DejaVuSans-2212" transform="translate(685.205078 0.765625)"/>
     <use xlink:href="#DejaVuSans-Oblique-7a" transform="translate(788.476562 0.765625)"/>
     <use xlink:href="#DejaVuSans-5d" transform="translate(840.966797 0.765625)"/>
     <use xlink:href="#DejaVuSans-2a" transform="translate(894.575195 39.046875) scale(0.7)"/>
     <use xlink:href="#DejaVuSans-29" transform="translate(945.947266 0.765625)"/>
     <use xlink:href="#DejaVuSans-2b" transform="translate(999.555664 39.046875) scale(0.7)"/>
     <use xlink:href="#DejaVuSans-28" transform="translate(1074.580078 0.765625)"/>
     <use xlink:href="#DejaVuSans-5b" transform="translate(1113.59375 0.765625)"/>
     <use xlink:href="#DejaVuSans-Oblique-41" transform="translate(1152.607422 0.765625)"/>
     <use xlink:href="#DejaVuSans-2212" transform="translate(1240.498047 0.765625)"/>
     <use xlink:href="#DejaVuSans-Oblique-5a" transform="translate(1343.769531 0.765625)"/>
     <use xlink:href="#DejaVuSans-5d" transform="translate(1412.275391 0.765625)"/>
     <use xlink:href="#DejaVuSans-2a" transform="translate(1465.883789 39.046875) scale(0.7)"/>
     <use xlink:href="#DejaVuSans-5b" transform="translate(1517.255859 0.765625)"/>
     <use xlink:href="#DejaVuSans-Oblique-61" transform="translate(1556.269531 0.765625)"/>
     <use xlink:href="#DejaVuSans-2212" transform="translate(1637.03125 0.765625)"/>
     <use xlink:href="#DejaVuSans-Oblique-7a" transform="translate(1740.302734 0.765625)"/>
     <use xlink:href="#DejaVuSans-5d" transform="translate(1792.792969 0.765625)"/>
     <use xlink:href="#DejaVuSans-2a" transform="translate(1846.401367 39.046875) scale(0.7)"/>
     <use xlink:href="#DejaVuSans-5b" transform="translate(1897.773438 0.765625)"/>
     <use xlink:href="#DejaVuSans-30" transform="translate(1936.787109 0.765625)"/>
     <use xlink:href="#DejaVuSans-2212" transform="translate(2019.892578 0.765625)"/>
     <use xlink:href="#DejaVuSans-39" transform="translate(2123.164062 0.765625)"/>
     <use xlink:href="#DejaVuSans-5d" transform="translate(2186.787109 0.765625)"/>
     <use xlink:href="#DejaVuSans-2a" transform="translate(2240.395508 39.046875) scale(0.7)"/>
     <use xlink:href="#DejaVuSans-29" transform="translate(2291.767578 0.765625)"/>
     <use xlink:href="#DejaVuSans-2a" transform="translate(2345.375977 39.046875) scale(0.7)"/>
    </g>
   </g>
  </g>
 </g>
</svg>
